<svg width="32" height="32" viewBox="0 0 32 32" fill="none" xmlns="http://www.w3.org/2000/svg">
<g clip-path="url(#clip0_308_4)">
<rect width="32" height="32" fill="white"/>
<path d="M5.856 9.44V17.44H8.704C9.87733 16.48 10.464 15.072 10.464 13.216C10.464 12.4267 10.304 11.68 9.984 10.976C9.68533 10.272 9.32267 9.76 8.896 9.44H5.856ZM1.536 28V5.6H10.208C11.6587 6.24 12.8 7.22133 13.632 8.544C14.4853 9.86667 14.912 11.4133 14.912 13.184C14.912 14.9333 14.4747 16.5547 13.6 18.048C12.7253 19.5413 11.4347 20.5973 9.728 21.216H5.856V28H1.536Z" fill="#6AB708"/>
<path d="M30.5765 5.6L26.0325 28H20.0165L15.4725 5.6H20.0805L21.8405 15.968L22.9285 22.688H23.1205L24.2085 15.968L25.9685 5.6H30.5765Z" fill="black"/>
</g>
<defs>
<clipPath id="clip0_308_4">
<rect width="32" height="32" fill="white"/>
</clipPath>
</defs>
</svg>
