<svg width="261" height="40" viewBox="0 0 261 40" fill="none" xmlns="http://www.w3.org/2000/svg">
<path d="M10.872 5.736C15.256 5.736 18.664 6.648 21.096 8.472C23.528 10.296 24.744 13 24.744 16.584C24.744 20.328 23.544 23.16 21.144 25.08C18.776 26.968 15.592 27.912 11.592 27.912H7.992V39H0.12V5.736H10.872ZM10.92 22.248C12.776 22.248 14.184 21.816 15.144 20.952C16.136 20.056 16.632 18.6 16.632 16.584C16.632 13.096 14.68 11.352 10.776 11.352H7.992V22.248H10.92ZM49.5281 25.752C49.5281 26.808 49.4801 27.72 49.3841 28.488H33.5921C33.8481 30.632 34.4561 32.136 35.4161 33C36.3761 33.864 37.7041 34.296 39.4001 34.296C40.4241 34.296 41.4161 34.12 42.3761 33.768C43.3361 33.384 44.3761 32.808 45.4961 32.04L48.6161 36.264C45.6401 38.632 42.3281 39.816 38.6801 39.816C34.5521 39.816 31.3841 38.6 29.1761 36.168C26.9681 33.736 25.8641 30.472 25.8641 26.376C25.8641 23.784 26.3281 21.464 27.2561 19.416C28.1841 17.336 29.5441 15.704 31.3361 14.52C33.1281 13.304 35.2721 12.696 37.7681 12.696C41.4481 12.696 44.3281 13.848 46.4081 16.152C48.4881 18.456 49.5281 21.656 49.5281 25.752ZM42.0881 23.592C42.0241 19.688 40.6481 17.736 37.9601 17.736C36.6481 17.736 35.6241 18.216 34.8881 19.176C34.1841 20.136 33.7521 21.72 33.5921 23.928H42.0881V23.592ZM76.6365 3.384V39H69.9165L69.5325 36.024C67.7405 38.552 65.3245 39.816 62.2845 39.816C59.1165 39.816 56.7005 38.6 55.0365 36.168C53.4045 33.736 52.5885 30.408 52.5885 26.184C52.5885 23.592 53.0205 21.272 53.8845 19.224C54.7485 17.176 55.9645 15.576 57.5325 14.424C59.1325 13.272 60.9565 12.696 63.0045 12.696C65.4365 12.696 67.4525 13.496 69.0525 15.096V2.568L76.6365 3.384ZM64.6365 34.248C66.3965 34.248 67.8685 33.288 69.0525 31.368V20.376C68.4445 19.64 67.8205 19.096 67.1805 18.744C66.5725 18.392 65.8685 18.216 65.0685 18.216C63.6605 18.216 62.5405 18.872 61.7085 20.184C60.8765 21.496 60.4605 23.512 60.4605 26.232C60.4605 29.208 60.8125 31.288 61.5165 32.472C62.2525 33.656 63.2925 34.248 64.6365 34.248ZM96.3938 12.792C97.3218 12.792 98.1698 12.904 98.9378 13.128L97.7378 20.472C96.7778 20.248 96.0098 20.136 95.4338 20.136C93.9298 20.136 92.7778 20.664 91.9778 21.72C91.2098 22.744 90.6018 24.296 90.1538 26.376V39H82.5698V13.512H89.1938L89.8178 18.456C90.3938 16.696 91.2578 15.32 92.4098 14.328C93.5938 13.304 94.9218 12.792 96.3938 12.792ZM111.422 12.696C115.326 12.696 118.382 13.896 120.59 16.296C122.798 18.664 123.902 21.992 123.902 26.28C123.902 29 123.39 31.384 122.366 33.432C121.374 35.448 119.934 37.016 118.046 38.136C116.19 39.256 113.982 39.816 111.422 39.816C107.55 39.816 104.494 38.632 102.254 36.264C100.046 33.864 98.9423 30.52 98.9423 26.232C98.9423 23.512 99.4383 21.144 100.43 19.128C101.454 17.08 102.894 15.496 104.75 14.376C106.638 13.256 108.862 12.696 111.422 12.696ZM111.422 18.264C109.886 18.264 108.734 18.92 107.966 20.232C107.198 21.512 106.814 23.512 106.814 26.232C106.814 29.016 107.182 31.048 107.918 32.328C108.686 33.608 109.854 34.248 111.422 34.248C112.958 34.248 114.11 33.608 114.878 32.328C115.646 31.016 116.03 29 116.03 26.28C116.03 23.496 115.646 21.464 114.878 20.184C114.142 18.904 112.99 18.264 111.422 18.264ZM164.86 5.736L155.596 39H145.804L136.204 5.736H144.508L150.844 32.856L156.796 5.736H164.86ZM174.763 13.512V39H167.179V13.512H174.763ZM170.923 0.0719976C172.235 0.0719976 173.307 0.487998 174.139 1.32C175.003 2.12 175.435 3.144 175.435 4.392C175.435 5.64 175.003 6.68 174.139 7.512C173.307 8.312 172.235 8.712 170.923 8.712C169.611 8.712 168.539 8.312 167.707 7.512C166.875 6.68 166.459 5.64 166.459 4.392C166.459 3.144 166.875 2.12 167.707 1.32C168.539 0.487998 169.611 0.0719976 170.923 0.0719976ZM202.95 25.752C202.95 26.808 202.902 27.72 202.806 28.488H187.014C187.27 30.632 187.878 32.136 188.838 33C189.798 33.864 191.126 34.296 192.822 34.296C193.846 34.296 194.838 34.12 195.798 33.768C196.758 33.384 197.798 32.808 198.918 32.04L202.038 36.264C199.062 38.632 195.75 39.816 192.102 39.816C187.974 39.816 184.806 38.6 182.598 36.168C180.39 33.736 179.286 30.472 179.286 26.376C179.286 23.784 179.75 21.464 180.678 19.416C181.606 17.336 182.966 15.704 184.758 14.52C186.55 13.304 188.694 12.696 191.19 12.696C194.87 12.696 197.75 13.848 199.83 16.152C201.91 18.456 202.95 21.656 202.95 25.752ZM195.51 23.592C195.446 19.688 194.07 17.736 191.382 17.736C190.07 17.736 189.046 18.216 188.31 19.176C187.606 20.136 187.174 21.72 187.014 23.928H195.51V23.592ZM214.794 13.512V39H207.21V13.512H214.794ZM210.954 0.0719976C212.266 0.0719976 213.338 0.487998 214.17 1.32C215.034 2.12 215.466 3.144 215.466 4.392C215.466 5.64 215.034 6.68 214.17 7.512C213.338 8.312 212.266 8.712 210.954 8.712C209.642 8.712 208.57 8.312 207.738 7.512C206.906 6.68 206.49 5.64 206.49 4.392C206.49 3.144 206.906 2.12 207.738 1.32C208.57 0.487998 209.642 0.0719976 210.954 0.0719976ZM234.581 12.792C235.509 12.792 236.357 12.904 237.125 13.128L235.925 20.472C234.965 20.248 234.197 20.136 233.621 20.136C232.117 20.136 230.965 20.664 230.165 21.72C229.397 22.744 228.789 24.296 228.341 26.376V39H220.757V13.512H227.381L228.005 18.456C228.581 16.696 229.445 15.32 230.597 14.328C231.781 13.304 233.109 12.792 234.581 12.792ZM258.591 31.608C258.591 32.568 258.719 33.272 258.975 33.72C259.263 34.168 259.711 34.504 260.319 34.728L258.735 39.672C257.167 39.544 255.887 39.208 254.895 38.664C253.903 38.088 253.135 37.192 252.591 35.976C250.927 38.536 248.367 39.816 244.911 39.816C242.383 39.816 240.367 39.08 238.863 37.608C237.359 36.136 236.607 34.216 236.607 31.848C236.607 29.064 237.631 26.936 239.679 25.464C241.727 23.992 244.687 23.256 248.559 23.256H251.151V22.152C251.151 20.648 250.831 19.624 250.191 19.08C249.551 18.504 248.431 18.216 246.831 18.216C245.999 18.216 244.991 18.344 243.807 18.6C242.623 18.824 241.407 19.144 240.159 19.56L238.431 14.568C240.031 13.96 241.663 13.496 243.327 13.176C245.023 12.856 246.591 12.696 248.031 12.696C251.679 12.696 254.351 13.448 256.047 14.952C257.743 16.456 258.591 18.712 258.591 21.72V31.608ZM247.119 34.392C248.847 34.392 250.191 33.576 251.151 31.944V27.432H249.279C247.551 27.432 246.255 27.736 245.391 28.344C244.559 28.952 244.143 29.896 244.143 31.176C244.143 32.2 244.399 33 244.911 33.576C245.455 34.12 246.191 34.392 247.119 34.392Z" fill="#141414"/>
</svg>
